RobotoDelta-wghtmax.ufo
<glyph name="numbersign" format="1">
  <advance width="1625.8"/>
  <unicode hex="0023"/>
  <outline>
    <contour>
      <point x="245.0" y="-20.0" type="line"/>
      <point x="477.8" y="-20.0" type="line"/>
      <point x="882.3" y="1476.0" type="line"/>
      <point x="649.5" y="1476.0" type="line"/>
    </contour>
    <contour>
      <point x="744.0" y="-20.0" type="line"/>
      <point x="976.8" y="-20.0" type="line"/>
      <point x="1380.8" y="1476.0" type="line"/>
      <point x="1148.0" y="1476.0" type="line"/>
    </contour>
    <contour>
      <point x="112.0" y="371.0" type="line"/>
      <point x="1448.3" y="371.0" type="line"/>
      <point x="1448.3" y="565.0" type="line"/>
      <point x="112.0" y="565.0" type="line"/>
    </contour>
    <contour>
      <point x="178.5" y="891.0" type="line"/>
      <point x="1513.8" y="891.0" type="line"/>
      <point x="1513.8" y="1085.0" type="line"/>
      <point x="178.5" y="1085.0" type="line"/>
    </contour>
  </outline>
</glyph>
<glyph name="quotesingle" format="1">
  <advance width="488.8"/>
  <unicode hex="0027"/>
  <outline>
    <contour>
      <point x="136.1" y="844.0" type="line"/>
      <point x="352.7" y="844.0" type="line"/>
      <point x="388.8" y="1286.0" type="line"/>
      <point x="388.8" y="1456.0" type="line"/>
      <point x="100.0" y="1456.0" type="line"/>
      <point x="100.0" y="1286.0" type="line"/>
    </contour>
  </outline>
</glyph>
<glyph name="period" format="1">
  <advance width="714.6800000000001"/>
  <unicode hex="002E"/>
  <outline>
    <contour>
      <point x="160.0" y="140.5" type="qcurve" smooth="yes"/>
      <point x="160.0" y="73.0"/>
      <point x="261.78" y="-22.0"/>
      <point x="357.34000000000003" y="-22.0" type="qcurve" smooth="yes"/>
      <point x="452.9" y="-22.0"/>
      <point x="554.6800000000001" y="73.0"/>
      <point x="554.6800000000001" y="140.5" type="qcurve" smooth="yes"/>
      <point x="554.6800000000001" y="208.0"/>
      <point x="453" y="303"/>
      <point x="357" y="303" type="qcurve" smooth="yes"/>
      <point x="262" y="303"/>
      <point x="160.0" y="208.0"/>
    </contour>
  </outline>
</glyph>
<glyph name="zero" format="1">
  <advance width="1156"/>
  <unicode hex="0030"/>
  <outline>
    <contour>
      <point x="110" y="570" type="line" smooth="yes"/>
      <point x="110" y="295"/>
      <point x="375" y="-25"/>
      <point x="620" y="-25" type="qcurve" smooth="yes"/>
      <point x="864" y="-25"/>
      <point x="1128" y="295"/>
      <point x="1128" y="570" type="qcurve" smooth="yes"/>
      <point x="1128" y="887" type="line" smooth="yes"/>
      <point x="1128" y="1153"/>
      <point x="860" y="1474"/>
      <point x="618" y="1474" type="qcurve" smooth="yes"/>
      <point x="377" y="1474"/>
      <point x="110" y="1153"/>
      <point x="110" y="887" type="qcurve" smooth="yes"/>
    </contour>
    <contour>
      <point x="406" y="584" type="qcurve" smooth="yes"/>
      <point x="406" y="877" type="line" smooth="yes"/>
      <point x="406" y="1086"/>
      <point x="505" y="1262"/>
      <point x="618" y="1262" type="qcurve" smooth="yes"/>
      <point x="731" y="1262"/>
      <point x="832" y="1090"/>
      <point x="832" y="877" type="qcurve" smooth="yes"/>
      <point x="832" y="584" type="line" smooth="yes"/>
      <point x="832" y="353"/>
      <point x="735" y="186"/>
      <point x="620" y="186" type="qcurve" smooth="yes"/>
      <point x="505" y="186"/>
      <point x="406" y="351"/>
    </contour>
  </outline>
</glyph>
<glyph name="two" format="1">
  <advance width="1156"/>
  <unicode hex="0032"/>
  <outline>
    <contour>
      <point x="102" y="0" type="line"/>
      <point x="1025" y="0" type="line"/>
      <point x="1025" y="207" type="line"/>
      <point x="457" y="207" type="line"/>
      <point x="681" y="510" type="line"/>
      <point x="794" y="645"/>
      <point x="1003" y="940"/>
      <point x="1003" y="1115" type="qcurve" smooth="yes"/>
      <point x="1003" y="1277"/>
      <point x="778" y="1476"/>
      <point x="558" y="1476" type="qcurve" smooth="yes"/>
      <point x="327" y="1476"/>
      <point x="109" y="1236"/>
      <point x="109" y="1070" type="qcurve" smooth="yes"/>
      <point x="109" y="1028" type="line"/>
      <point x="393" y="1028" type="line"/>
      <point x="393" y="1057" type="line" smooth="yes"/>
      <point x="393" y="1160"/>
      <point x="465" y="1268"/>
      <point x="550" y="1268" type="qcurve" smooth="yes"/>
      <point x="629" y="1268"/>
      <point x="706" y="1183"/>
      <point x="706" y="1094" type="qcurve" smooth="yes"/>
      <point x="706" y="956"/>
      <point x="586" y="749"/>
      <point x="496" y="640" type="qcurve" smooth="yes"/>
      <point x="102" y="127" type="line"/>
    </contour>
  </outline>
</glyph>
<glyph name="four" format="1">
  <advance width="1156"/>
  <unicode hex="0034"/>
  <outline>
    <contour>
      <point x="651" y="0" type="line"/>
      <point x="925" y="0" type="line"/>
      <point x="925" y="1456" type="line"/>
      <point x="630" y="1456" type="line"/>
      <point x="53" y="466" type="line"/>
      <point x="53" y="333" type="line"/>
      <point x="1104" y="333" type="line"/>
      <point x="1104" y="541" type="line"/>
      <point x="793" y="541" type="line"/>
      <point x="767" y="541" type="line"/>
      <point x="371" y="541" type="line"/>
      <point x="646" y="1041" type="line"/>
      <point x="651" y="1042" type="line"/>
      <point x="651" y="431" type="line"/>
      <point x="651" y="415" type="line"/>
    </contour>
  </outline>
</glyph>
<glyph name="five" format="1">
  <advance width="1156"/>
  <unicode hex="0035"/>
  <outline>
    <contour>
      <point x="101" y="335" type="line" smooth="yes"/>
      <point x="101" y="166"/>
      <point x="377" y="-30"/>
      <point x="609" y="-30" type="qcurve" smooth="yes"/>
      <point x="839" y="-30"/>
      <point x="1107" y="236"/>
      <point x="1107" y="477" type="qcurve" smooth="yes"/>
      <point x="1107" y="721"/>
      <point x="853" y="986"/>
      <point x="644" y="986" type="qcurve" smooth="yes"/>
      <point x="528" y="986"/>
      <point x="390" y="930"/>
      <point x="366" y="900" type="qcurve"/>
      <point x="400" y="1230" type="line"/>
      <point x="1035" y="1230" type="line"/>
      <point x="1035" y="1456" type="line"/>
      <point x="214" y="1456" type="line"/>
      <point x="141" y="709" type="line"/>
      <point x="297" y="631" type="line"/>
      <point x="328" y="680"/>
      <point x="475" y="766"/>
      <point x="584" y="766" type="qcurve" smooth="yes"/>
      <point x="718" y="766"/>
      <point x="827" y="625"/>
      <point x="827" y="474" type="qcurve" smooth="yes"/>
      <point x="827" y="321"/>
      <point x="717" y="178"/>
      <point x="596" y="178" type="qcurve" smooth="yes"/>
      <point x="489" y="178"/>
      <point x="379" y="261"/>
      <point x="379" y="346" type="qcurve" smooth="yes"/>
      <point x="379" y="373" type="line"/>
      <point x="101" y="373" type="line"/>
    </contour>
  </outline>
</glyph>
<glyph name="eight" format="1">
  <advance width="1156"/>
  <unicode hex="0038"/>
  <outline>
    <contour>
      <point x="108" y="383" type="qcurve" smooth="yes"/>
      <point x="108" y="183"/>
      <point x="362" y="-31"/>
      <point x="603" y="-31" type="qcurve" smooth="yes"/>
      <point x="845" y="-31"/>
      <point x="1099" y="183"/>
      <point x="1099" y="383" type="qcurve" smooth="yes"/>
      <point x="1099" y="510"/>
      <point x="968" y="697"/>
      <point x="845" y="742" type="qcurve"/>
      <point x="845" y="756" type="line"/>
      <point x="947" y="803"/>
      <point x="1056" y="968"/>
      <point x="1056" y="1076" type="qcurve" smooth="yes"/>
      <point x="1056" y="1270"/>
      <point x="823" y="1479"/>
      <point x="602" y="1479" type="qcurve" smooth="yes"/>
      <point x="382" y="1479"/>
      <point x="151" y="1270"/>
      <point x="151" y="1076" type="qcurve" smooth="yes"/>
      <point x="151" y="967"/>
      <point x="262" y="802"/>
      <point x="367" y="756" type="qcurve"/>
      <point x="367" y="743" type="line"/>
      <point x="242" y="701"/>
      <point x="108" y="514"/>
    </contour>
    <contour>
      <point x="415" y="1057" type="qcurve" smooth="yes"/>
      <point x="415" y="1161"/>
      <point x="500" y="1262"/>
      <point x="602" y="1262" type="qcurve" smooth="yes"/>
      <point x="704" y="1262"/>
      <point x="791" y="1161"/>
      <point x="791" y="1057" type="qcurve" smooth="yes"/>
      <point x="791" y="952"/>
      <point x="705" y="850"/>
      <point x="603" y="850" type="qcurve" smooth="yes"/>
      <point x="500" y="850"/>
      <point x="415" y="952"/>
    </contour>
    <contour>
      <point x="375" y="404" type="qcurve" smooth="yes"/>
      <point x="375" y="515"/>
      <point x="479" y="639"/>
      <point x="601" y="639" type="qcurve" smooth="yes"/>
      <point x="723" y="639"/>
      <point x="831" y="515"/>
      <point x="831" y="404" type="qcurve" smooth="yes"/>
      <point x="831" y="298"/>
      <point x="725" y="180"/>
      <point x="603" y="180" type="qcurve" smooth="yes"/>
      <point x="480" y="180"/>
      <point x="375" y="298"/>
    </contour>
  </outline>
</glyph>
<glyph name="colon" format="1">
  <advance width="728.76"/>
  <unicode hex="003A"/>
  <outline>
    <contour>
      <point x="176.0" y="133.0" type="qcurve" smooth="yes"/>
      <point x="176.0" y="69.0"/>
      <point x="273.3" y="-22.0"/>
      <point x="364.38" y="-22.0" type="qcurve" smooth="yes"/>
      <point x="455.46" y="-22.0"/>
      <point x="552.76" y="69.0"/>
      <point x="552.76" y="133.0" type="qcurve" smooth="yes"/>
      <point x="552.76" y="197.0"/>
      <point x="455.46" y="288.0"/>
      <point x="364.38" y="288.0" type="qcurve" smooth="yes"/>
      <point x="273.3" y="288.0"/>
      <point x="176.0" y="197.0"/>
    </contour>
    <contour>
      <point x="176.0" y="946.68" type="qcurve" smooth="yes"/>
      <point x="176.0" y="882.68"/>
      <point x="273.3" y="791.68"/>
      <point x="364.38" y="791.68" type="qcurve" smooth="yes"/>
      <point x="455.46" y="791.68"/>
      <point x="552.76" y="882.68"/>
      <point x="552.76" y="946.68" type="qcurve" smooth="yes"/>
      <point x="552.76" y="1010.68"/>
      <point x="455.46" y="1101.68"/>
      <point x="364.38" y="1101.68" type="qcurve" smooth="yes"/>
      <point x="273.3" y="1101.68"/>
      <point x="176.0" y="1010.68"/>
    </contour>
  </outline>
</glyph>
<glyph name="semicolon" format="1">
  <advance width="728.76"/>
  <unicode hex="003B"/>
  <outline>
    <contour>
      <point x="125.92" y="-234.0" type="qcurve"/>
      <point x="285.68" y="-335.5" type="line"/>
      <point x="386.88" y="-258.0"/>
      <point x="504.34000000000003" y="-39.0"/>
      <point x="504.34000000000003" y="91.0" type="qcurve" smooth="yes"/>
      <point x="504.34000000000003" y="275.0" type="line"/>
      <point x="244.42" y="275.0" type="line"/>
      <point x="244.42" y="91.0" type="line" smooth="yes"/>
      <point x="244.42" y="-10.0"/>
      <point x="185.02" y="-163.0"/>
    </contour>
    <contour>
      <point x="176.0" y="946.68" type="qcurve" smooth="yes"/>
      <point x="176.0" y="882.68"/>
      <point x="273.3" y="791.68"/>
      <point x="364.38" y="791.68" type="qcurve" smooth="yes"/>
      <point x="455.46" y="791.68"/>
      <point x="552.76" y="882.68"/>
      <point x="552.76" y="946.68" type="qcurve" smooth="yes"/>
      <point x="552.76" y="1010.68"/>
      <point x="455.46" y="1101.68"/>
      <point x="364.38" y="1101.68" type="qcurve" smooth="yes"/>
      <point x="273.3" y="1101.68"/>
      <point x="176.0" y="1010.68"/>
    </contour>
  </outline>
</glyph>
<glyph name="F" format="1">
  <advance width="1184"/>
  <unicode hex="0046"/>
  <outline>
    <contour>
      <point x="170" y="0" type="line"/>
      <point x="458" y="0" type="line"/>
      <point x="458" y="616" type="line"/>
      <point x="1032" y="616" type="line"/>
      <point x="1032" y="830" type="line"/>
      <point x="458" y="830" type="line"/>
      <point x="458" y="1242" type="line"/>
      <point x="1125" y="1242" type="line"/>
      <point x="1125" y="1456" type="line"/>
      <point x="170" y="1456" type="line"/>
    </contour>
  </outline>
</glyph>
<glyph name="J" format="1">
  <advance width="1151"/>
  <unicode hex="004A"/>
  <outline>
    <contour>
      <point x="24" y="378" type="line" smooth="yes"/>
      <point x="24" y="182"/>
      <point x="290" y="-29"/>
      <point x="507" y="-29" type="qcurve" smooth="yes"/>
      <point x="723" y="-29"/>
      <point x="995" y="213"/>
      <point x="995" y="432" type="qcurve" smooth="yes"/>
      <point x="995" y="1456" type="line"/>
      <point x="716" y="1456" type="line"/>
      <point x="716" y="432" type="line" smooth="yes"/>
      <point x="716" y="311"/>
      <point x="613" y="183"/>
      <point x="506" y="183" type="qcurve" smooth="yes"/>
      <point x="401" y="183"/>
      <point x="303" y="287"/>
      <point x="303" y="383" type="qcurve" smooth="yes"/>
      <point x="303" y="403" type="line"/>
      <point x="24" y="403" type="line"/>
    </contour>
  </outline>
</glyph>
<glyph name="L" format="1">
  <advance width="1156.92"/>
  <unicode hex="004C"/>
  <outline>
    <contour>
      <point x="170.0" y="0.0" type="line"/>
      <point x="1132.92" y="0.0" type="line"/>
      <point x="1132.92" y="214.0" type="line"/>
      <point x="478.92" y="214.0" type="line"/>
      <point x="478.92" y="1456.0" type="line"/>
      <point x="170.0" y="1456.0" type="line"/>
    </contour>
  </outline>
</glyph>
<glyph name="M" format="1">
  <advance width="1797"/>
  <unicode hex="004D"/>
  <outline>
    <contour>
      <point x="170" y="0" type="line"/>
      <point x="396" y="0" type="line"/>
      <point x="396" y="823" type="line" smooth="yes"/>
      <point x="396" y="881"/>
      <point x="387" y="1065"/>
      <point x="382" y="1116" type="qcurve"/>
      <point x="395" y="1116" type="line"/>
      <point x="397" y="1097"/>
      <point x="429" y="957"/>
      <point x="445" y="905" type="qcurve" smooth="yes"/>
      <point x="752" y="0" type="line"/>
      <point x="988" y="0" type="line"/>
      <point x="1305" y="931" type="line" smooth="yes"/>
      <point x="1314" y="957"/>
      <point x="1346" y="1117"/>
      <point x="1350" y="1142" type="qcurve"/>
      <point x="1361" y="1142" type="line"/>
      <point x="1351" y="1088"/>
      <point x="1340" y="879"/>
      <point x="1340" y="824" type="qcurve" smooth="yes"/>
      <point x="1340" y="0" type="line"/>
      <point x="1627" y="0" type="line"/>
      <point x="1627" y="1456" type="line"/>
      <point x="1246" y="1456" type="line"/>
      <point x="932" y="491" type="line" smooth="yes"/>
      <point x="923" y="459"/>
      <point x="906" y="380"/>
      <point x="903" y="352" type="qcurve"/>
      <point x="895" y="352" type="line"/>
      <point x="891" y="381"/>
      <point x="868" y="474"/>
      <point x="858" y="508" type="qcurve" smooth="yes"/>
      <point x="547" y="1456" type="line"/>
      <point x="170" y="1456" type="line"/>
    </contour>
  </outline>
</glyph>
<glyph name="bracketright" format="1">
  <advance width="764.7"/>
  <unicode hex="005D"/>
  <outline>
    <contour>
      <point x="620.7" y="-310.0" type="line"/>
      <point x="620.7" y="1456.0" type="line"/>
      <point x="89.5" y="1456.0" type="line"/>
      <point x="89.5" y="1246.0" type="line"/>
      <point x="321.0" y="1246.0" type="line"/>
      <point x="321.0" y="-100.0" type="line"/>
      <point x="89.5" y="-100.0" type="line"/>
      <point x="89.5" y="-310.0" type="line"/>
    </contour>
  </outline>
</glyph>
<glyph name="grave" format="1">
  <advance width="985.5"/>
  <unicode hex="0060"/>
  <outline>
    <contour>
      <point x="366.9" y="1156.0" type="line"/>
      <point x="652.3" y="1156.0" type="line"/>
      <point x="460.8" y="1456.0" type="line"/>
      <point x="128.4" y="1456.0" type="line"/>
    </contour>
    <contour>
      <point x="501.5" y="1052.0" type="move" name="_top"/>
    </contour>
  </outline>
</glyph>
<glyph name="c" format="1">
  <advance width="1138"/>
  <unicode hex="0063"/>
  <outline>
    <contour>
      <point x="80" y="524" type="line" smooth="yes"/>
      <point x="80" y="274"/>
      <point x="369" y="-31"/>
      <point x="626" y="-31" type="qcurve" smooth="yes"/>
      <point x="861" y="-31"/>
      <point x="1096" y="175"/>
      <point x="1096" y="316" type="qcurve" smooth="yes"/>
      <point x="1096" y="372" type="line"/>
      <point x="827" y="372" type="line"/>
      <point x="827" y="332" type="line" smooth="yes"/>
      <point x="827" y="268"/>
      <point x="745" y="188"/>
      <point x="642" y="188" type="qcurve" smooth="yes"/>
      <point x="515" y="188"/>
      <point x="403" y="345"/>
      <point x="403" y="530" type="qcurve" smooth="yes"/>
      <point x="403" y="567" type="line" smooth="yes"/>
      <point x="403" y="762"/>
      <point x="518" y="893"/>
      <point x="632" y="893" type="qcurve" smooth="yes"/>
      <point x="736" y="893"/>
      <point x="827" y="798"/>
      <point x="827" y="727" type="qcurve" smooth="yes"/>
      <point x="827" y="679" type="line"/>
      <point x="1096" y="679" type="line"/>
      <point x="1096" y="738" type="line" smooth="yes"/>
      <point x="1096" y="898"/>
      <point x="866" y="1112"/>
      <point x="625" y="1112" type="qcurve" smooth="yes"/>
      <point x="384" y="1112"/>
      <point x="80" y="803"/>
      <point x="80" y="573" type="qcurve" smooth="yes"/>
    </contour>
    <contour>
      <point x="720" y="0" type="move" name="bottom"/>
    </contour>
  </outline>
</glyph>
<glyph name="g" format="1">
  <advance width="1270"/>
  <unicode hex="0067"/>
  <outline>
    <contour>
      <point x="123" y="-284" type="line"/>
      <point x="181" y="-346"/>
      <point x="424" y="-437"/>
      <point x="604" y="-437" type="qcurve" smooth="yes"/>
      <point x="834" y="-437"/>
      <point x="1134" y="-176"/>
      <point x="1134" y="23" type="qcurve" smooth="yes"/>
      <point x="1134" y="1081" type="line"/>
      <point x="888" y="1081" type="line"/>
      <point x="862" y="951" type="line"/>
      <point x="862" y="951" type="line"/>
      <point x="839" y="1007"/>
      <point x="696" y="1108"/>
      <point x="571" y="1108" type="qcurve" smooth="yes"/>
      <point x="342" y="1108"/>
      <point x="80" y="815"/>
      <point x="80" y="562" type="qcurve" smooth="yes"/>
      <point x="80" y="523" type="line" smooth="yes"/>
      <point x="80" y="280"/>
      <point x="338" y="-6"/>
      <point x="546" y="-6" type="qcurve" smooth="yes"/>
      <point x="674" y="-6"/>
      <point x="816" y="77"/>
      <point x="845" y="131" type="qcurve"/>
      <point x="845" y="14" type="line" smooth="yes"/>
      <point x="845" y="-106"/>
      <point x="705" y="-210"/>
      <point x="590" y="-210" type="qcurve" smooth="yes"/>
      <point x="470" y="-210"/>
      <point x="329" y="-152"/>
      <point x="276" y="-102" type="qcurve"/>
    </contour>
    <contour>
      <point x="400" y="523" type="qcurve" smooth="yes"/>
      <point x="400" y="567" type="line" smooth="yes"/>
      <point x="400" y="736"/>
      <point x="507" y="900"/>
      <point x="619" y="899" type="qcurve" smooth="yes"/>
      <point x="704" y="898"/>
      <point x="803" y="824"/>
      <point x="824" y="761" type="qcurve"/>
      <point x="824" y="368" type="line"/>
      <point x="805" y="297"/>
      <point x="712" y="207"/>
      <point x="620" y="207" type="qcurve" smooth="yes"/>
      <point x="507" y="207"/>
      <point x="400" y="365"/>
    </contour>
  </outline>
</glyph>
<glyph name="h" format="1">
  <advance width="1228"/>
  <unicode hex="0068"/>
  <outline>
    <contour>
      <point x="136" y="0" type="line"/>
      <point x="446" y="0" type="line"/>
      <point x="446" y="773" type="line"/>
      <point x="467" y="814"/>
      <point x="558" y="888"/>
      <point x="648" y="888" type="qcurve" smooth="yes"/>
      <point x="721" y="888"/>
      <point x="794" y="808"/>
      <point x="794" y="720" type="qcurve" smooth="yes"/>
      <point x="794" y="0" type="line"/>
      <point x="1104" y="0" type="line"/>
      <point x="1104" y="741" type="line" smooth="yes"/>
      <point x="1104" y="919"/>
      <point x="916" y="1111"/>
      <point x="764" y="1111" type="qcurve" smooth="yes"/>
      <point x="631" y="1111"/>
      <point x="483" y="1016"/>
      <point x="442" y="961" type="qcurve"/>
      <point x="442" y="1536" type="line"/>
      <point x="136" y="1536" type="line"/>
    </contour>
  </outline>
</glyph>
<glyph name="i" format="1">
  <advance width="613.96"/>
  <unicode hex="0069"/>
  <outline>
    <contour>
      <point x="157.0" y="0.0" type="line"/>
      <point x="456.96" y="0.0" type="line"/>
      <point x="456.96" y="1078.68" type="line"/>
      <point x="157.0" y="1078.68" type="line"/>
    </contour>
    <contour>
      <point x="122.24000000000001" y="1361.68" type="qcurve" smooth="yes"/>
      <point x="122.24000000000001" y="1301.68"/>
      <point x="217.72" y="1220.68"/>
      <point x="306.98" y="1220.68" type="qcurve" smooth="yes"/>
      <point x="396.24" y="1220.68"/>
      <point x="491.72" y="1301.68"/>
      <point x="491.72" y="1361.68" type="qcurve" smooth="yes"/>
      <point x="491.72" y="1421.68"/>
      <point x="396.24" y="1502.68"/>
      <point x="306.98" y="1502.68" type="qcurve" smooth="yes"/>
      <point x="217.72" y="1502.68"/>
      <point x="122.24000000000001" y="1421.68"/>
    </contour>
  </outline>
</glyph>
<glyph name="j" format="1">
  <advance width="613.96"/>
  <unicode hex="006A"/>
  <outline>
    <contour>
      <point x="-49.5" y="-410.0" type="line"/>
      <point x="-25.99013948106134" y="-419.4888849910932"/>
      <point x="69.69024390243902" y="-436.0"/>
      <point x="107.8" y="-436.0" type="qcurve" smooth="yes"/>
      <point x="279.7613114754098" y="-436.0"/>
      <point x="456.96" y="-270.0"/>
      <point x="456.96" y="-90.0" type="qcurve" smooth="yes"/>
      <point x="456.96" y="1078.68" type="line"/>
      <point x="157.0" y="1078.68" type="line"/>
      <point x="157.0" y="-78.0" type="line" smooth="yes"/>
      <point x="157.0" y="-158.0"/>
      <point x="105.0" y="-228.0"/>
      <point x="58.5" y="-228.0" type="qcurve" smooth="yes"/>
      <point x="32.5" y="-228.0"/>
      <point x="-32.0" y="-214.0"/>
      <point x="-49.5" y="-208.0" type="qcurve"/>
    </contour>
    <contour>
      <point x="122.24000000000001" y="1361.68" type="qcurve" smooth="yes"/>
      <point x="122.24000000000001" y="1301.68"/>
      <point x="217.72" y="1220.68"/>
      <point x="306.98" y="1220.68" type="qcurve" smooth="yes"/>
      <point x="396.24" y="1220.68"/>
      <point x="491.72" y="1301.68"/>
      <point x="491.72" y="1361.68" type="qcurve" smooth="yes"/>
      <point x="491.72" y="1421.68"/>
      <point x="396.24" y="1502.68"/>
      <point x="306.98" y="1502.68" type="qcurve" smooth="yes"/>
      <point x="217.72" y="1502.68"/>
      <point x="122.24000000000001" y="1421.68"/>
    </contour>
  </outline>
</glyph>
<glyph name="z" format="1">
  <advance width="1046.26"/>
  <unicode hex="007A"/>
  <outline>
    <contour>
      <point x="70.0" y="0.0" type="line"/>
      <point x="982.26" y="0.0" type="line"/>
      <point x="982.26" y="211.0" type="line"/>
      <point x="468" y="211" type="line"/>
      <point x="956.26" y="887.18" type="line"/>
      <point x="956.26" y="1078.68" type="line"/>
      <point x="77.0" y="1078.68" type="line"/>
      <point x="77.0" y="867.68" type="line"/>
      <point x="558" y="868" type="line"/>
      <point x="70.0" y="193.0" type="line"/>
    </contour>
  </outline>
</glyph>
<glyph name="bar" format="1">
  <advance width="671.92"/>
  <unicode hex="007C"/>
  <outline>
    <contour>
      <point x="210.0" y="-416.0" type="line"/>
      <point x="461.92" y="-416.0" type="line"/>
      <point x="461.92" y="1456.0" type="line"/>
      <point x="210.0" y="1456.0" type="line"/>
    </contour>
  </outline>
</glyph>
<glyph name="dieresis" format="1">
  <advance width="970.0"/>
  <unicode hex="00A8"/>
  <outline>
    <contour>
      <point x="88.32000000000001" y="1268.5" type="qcurve" smooth="yes"/>
      <point x="88.32000000000001" y="1209.5"/>
      <point x="172.22" y="1129.5"/>
      <point x="247.16" y="1129.5" type="qcurve" smooth="yes"/>
      <point x="322.1" y="1129.5"/>
      <point x="406.0" y="1209.5"/>
      <point x="406.0" y="1268.5" type="qcurve" smooth="yes"/>
      <point x="406.0" y="1327.5"/>
      <point x="322.1" y="1407.5"/>
      <point x="247.16" y="1407.5" type="qcurve" smooth="yes"/>
      <point x="172.22" y="1407.5"/>
      <point x="88.32000000000001" y="1327.5"/>
    </contour>
    <contour>
      <point x="564.0" y="1268.5" type="qcurve" smooth="yes"/>
      <point x="564.0" y="1209.5"/>
      <point x="647.9" y="1129.5"/>
      <point x="722.84" y="1129.5" type="qcurve" smooth="yes"/>
      <point x="797.78" y="1129.5"/>
      <point x="881.68" y="1209.5"/>
      <point x="881.68" y="1268.5" type="qcurve" smooth="yes"/>
      <point x="881.68" y="1327.5"/>
      <point x="797.78" y="1407.5"/>
      <point x="722.84" y="1407.5" type="qcurve" smooth="yes"/>
      <point x="647.9" y="1407.5"/>
      <point x="564.0" y="1327.5"/>
    </contour>
    <contour>
      <point x="485.0" y="1052.0" type="move" name="_top"/>
    </contour>
  </outline>
</glyph>
<glyph name="macron" format="1">
  <advance width="946.0"/>
  <unicode hex="00AF"/>
  <outline>
    <contour>
      <point x="163.0" y="1168.0" type="line"/>
      <point x="783.0" y="1168.0" type="line"/>
      <point x="783.0" y="1365.0" type="line"/>
      <point x="163.0" y="1365.0" type="line"/>
    </contour>
    <contour>
      <point x="473.0" y="1052.0" type="move" name="_top"/>
    </contour>
  </outline>
</glyph>
<glyph name="periodcentered" format="1">
  <advance width="714.6800000000001"/>
  <unicode hex="00B7"/>
  <outline>
    <contour>
      <point x="160.0" y="730.0" type="qcurve" smooth="yes"/>
      <point x="160.0" y="662.5"/>
      <point x="261.78" y="567.5"/>
      <point x="357.34000000000003" y="567.5" type="qcurve" smooth="yes"/>
      <point x="452.9" y="567.5"/>
      <point x="554.6800000000001" y="662.5"/>
      <point x="554.6800000000001" y="730.0" type="qcurve" smooth="yes"/>
      <point x="554.6800000000001" y="797.5"/>
      <point x="452.9" y="892.5"/>
      <point x="357.34000000000003" y="892.5" type="qcurve" smooth="yes"/>
      <point x="261.78" y="892.5"/>
      <point x="160.0" y="797.5"/>
    </contour>
  </outline>
</glyph>
<glyph name="divide" format="1">
  <advance width="1170.0"/>
  <unicode hex="00F7"/>
  <outline>
    <contour>
      <point x="122.4" y="563.0" type="line"/>
      <point x="1047.6" y="563.0" type="line"/>
      <point x="1047.6" y="785.0" type="line"/>
      <point x="122.4" y="785.0" type="line"/>
    </contour>
    <contour>
      <point x="396.62" y="272.0" type="qcurve" smooth="yes"/>
      <point x="396.62" y="208.0"/>
      <point x="493.92" y="117.0"/>
      <point x="585.0" y="117.0" type="qcurve" smooth="yes"/>
      <point x="676.08" y="117.0"/>
      <point x="773.38" y="208.0"/>
      <point x="773.38" y="272.0" type="qcurve" smooth="yes"/>
      <point x="773.38" y="336.0"/>
      <point x="676.08" y="427.0"/>
      <point x="585.0" y="427.0" type="qcurve" smooth="yes"/>
      <point x="493.92" y="427.0"/>
      <point x="396.62" y="336.0"/>
    </contour>
    <contour>
      <point x="396.62" y="1076.0" type="qcurve" smooth="yes"/>
      <point x="396.62" y="1012.0"/>
      <point x="493.92" y="921.0"/>
      <point x="585.0" y="921.0" type="qcurve" smooth="yes"/>
      <point x="676.08" y="921.0"/>
      <point x="773.38" y="1012.0"/>
      <point x="773.38" y="1076.0" type="qcurve" smooth="yes"/>
      <point x="773.38" y="1140.0"/>
      <point x="676.08" y="1231.0"/>
      <point x="585.0" y="1231.0" type="qcurve" smooth="yes"/>
      <point x="493.92" y="1231.0"/>
      <point x="396.62" y="1140.0"/>
    </contour>
  </outline>
</glyph>
<glyph name="emdash" format="1">
  <advance width="1479.2"/>
  <unicode hex="2014"/>
  <outline>
    <contour>
      <point x="80.0" y="522.0" type="line"/>
      <point x="1399.2" y="522.0" type="line"/>
      <point x="1399.2" y="738.0" type="line"/>
      <point x="80.0" y="738.0" type="line"/>
    </contour>
  </outline>
</glyph>
<glyph name="quotesinglbase" format="1">
  <advance width="519.92"/>
  <unicode hex="201A"/>
  <outline>
    <contour>
      <point x="21.5" y="-219.0" type="qcurve"/>
      <point x="181.26" y="-320.5" type="line"/>
      <point x="282.46" y="-243.0"/>
      <point x="399.92" y="-24.0"/>
      <point x="399.92" y="106.0" type="qcurve" smooth="yes"/>
      <point x="399.92" y="275.0" type="line"/>
      <point x="140.0" y="275.0" type="line"/>
      <point x="140.0" y="106.0" type="line" smooth="yes"/>
      <point x="140.0" y="5.0"/>
      <point x="80.6" y="-148.0"/>
    </contour>
  </outline>
</glyph>
<glyph name="bullet" format="1">
  <advance width="914.36"/>
  <unicode hex="2022"/>
  <outline>
    <contour>
      <point x="164.0" y="729.0" type="line" smooth="yes"/>
      <point x="164.0" y="621.5"/>
      <point x="328.4" y="481.5"/>
      <point x="457.18" y="481.5" type="qcurve" smooth="yes"/>
      <point x="585.96" y="481.5"/>
      <point x="750.36" y="621.5"/>
      <point x="750.36" y="729.0" type="qcurve" smooth="yes"/>
      <point x="750.36" y="779.0" type="line" smooth="yes"/>
      <point x="750.36" y="886.5"/>
      <point x="585.96" y="1026.5"/>
      <point x="457.18" y="1026.5" type="qcurve" smooth="yes"/>
      <point x="328.4" y="1026.5"/>
      <point x="164.0" y="886.5"/>
      <point x="164.0" y="779.0" type="qcurve" smooth="yes"/>
    </contour>
  </outline>
</glyph>
<glyph name="ellipsis" format="1">
  <advance width="2144.04"/>
  <unicode hex="2026"/>
  <outline>
    <contour>
      <point x="160.0" y="140.5" type="qcurve" smooth="yes"/>
      <point x="160.0" y="73.0"/>
      <point x="261.78" y="-22.0"/>
      <point x="357.34000000000003" y="-22.0" type="qcurve" smooth="yes"/>
      <point x="452.9" y="-22.0"/>
      <point x="554.6800000000001" y="73.0"/>
      <point x="554.6800000000001" y="140.5" type="qcurve" smooth="yes"/>
      <point x="554.6800000000001" y="208.0"/>
      <point x="452.9" y="303.0"/>
      <point x="357.34000000000003" y="303.0" type="qcurve" smooth="yes"/>
      <point x="261.78" y="303.0"/>
      <point x="160.0" y="208.0"/>
    </contour>
    <contour>
      <point x="874.6800000000001" y="140.5" type="qcurve" smooth="yes"/>
      <point x="874.6800000000001" y="73.0"/>
      <point x="976.46" y="-22.0"/>
      <point x="1072.02" y="-22.0" type="qcurve" smooth="yes"/>
      <point x="1167.58" y="-22.0"/>
      <point x="1269.3600000000001" y="73.0"/>
      <point x="1269.3600000000001" y="140.5" type="qcurve" smooth="yes"/>
      <point x="1269.3600000000001" y="208.0"/>
      <point x="1167.58" y="303.0"/>
      <point x="1072.02" y="303.0" type="qcurve" smooth="yes"/>
      <point x="976.46" y="303.0"/>
      <point x="874.6800000000001" y="208.0"/>
    </contour>
    <contour>
      <point x="1589.3600000000001" y="140.5" type="qcurve" smooth="yes"/>
      <point x="1589.3600000000001" y="73.0"/>
      <point x="1691.1399999999999" y="-22.0"/>
      <point x="1786.7" y="-22.0" type="qcurve" smooth="yes"/>
      <point x="1882.26" y="-22.0"/>
      <point x="1984.04" y="73.0"/>
      <point x="1984.04" y="140.5" type="qcurve" smooth="yes"/>
      <point x="1984.04" y="208.0"/>
      <point x="1882.26" y="303.0"/>
      <point x="1786.7" y="303.0" type="qcurve" smooth="yes"/>
      <point x="1691.1399999999999" y="303.0"/>
      <point x="1589.3600000000001" y="208.0"/>
    </contour>
  </outline>
</glyph>
<glyph name="guilsinglleft" format="1">
  <advance width="728.3"/>
  <unicode hex="2039"/>
  <outline>
    <contour>
      <point x="396.2" y="184.0" type="line"/>
      <point x="684.5" y="184.0" type="line"/>
      <point x="417.8" y="602.0" type="line"/>
      <point x="684.5" y="1020.0" type="line"/>
      <point x="396.2" y="1020.0" type="line"/>
      <point x="72.0" y="612.0" type="line"/>
      <point x="72.0" y="592.0" type="line"/>
    </contour>
  </outline>
</glyph>
<glyph name="one.pnum" format="1">
  <advance width="1122.96"/>
  <outline>
    <contour>
      <point x="463.84" y="0.0" type="line"/>
      <point x="780.16" y="0.0" type="line"/>
      <point x="780.16" y="1476.0" type="line"/>
      <point x="628.36" y="1476.0" type="line"/>
      <point x="165.84" y="1291.0" type="line"/>
      <point x="165.84" y="1055.0" type="line"/>
      <point x="463.84" y="1174.0" type="line"/>
    </contour>
  </outline>
</glyph>
